<svg xmlns="http://www.w3.org/2000/svg" viewBox="0 0 1920 980" role="img" aria-label="하하캠퍼스 메인 배경">
  <defs>
    <linearGradient id="sky" x1="0" y1="0" x2="0" y2="1">
      <stop offset="0%" stop-color="#d7f0ff"/>
      <stop offset="58%" stop-color="#93d2f3"/>
      <stop offset="100%" stop-color="#78c2e9"/>
    </linearGradient>
    <linearGradient id="water" x1="0" y1="0" x2="0" y2="1">
      <stop offset="0%" stop-color="#22a3d8"/>
      <stop offset="100%" stop-color="#0b7fbe"/>
    </linearGradient>
    <linearGradient id="fieldA" x1="0" y1="0" x2="1" y2="0">
      <stop offset="0%" stop-color="#98ca3f"/>
      <stop offset="100%" stop-color="#8bc135"/>
    </linearGradient>
    <linearGradient id="fieldB" x1="0" y1="0" x2="1" y2="0">
      <stop offset="0%" stop-color="#7db62f"/>
      <stop offset="100%" stop-color="#88bf34"/>
    </linearGradient>
    <linearGradient id="glassA" x1="0" y1="0" x2="0" y2="1">
      <stop offset="0%" stop-color="#7dc1e5"/>
      <stop offset="100%" stop-color="#5ea8cf"/>
    </linearGradient>
    <linearGradient id="glassB" x1="0" y1="0" x2="0" y2="1">
      <stop offset="0%" stop-color="#90d0ef"/>
      <stop offset="100%" stop-color="#6eb6db"/>
    </linearGradient>
  </defs>

  <rect width="1920" height="980" fill="url(#sky)"/>

  <g opacity="0.28">
    <circle cx="240" cy="180" r="180" fill="#ffffff"/>
    <circle cx="1680" cy="190" r="210" fill="#ffffff"/>
    <circle cx="940" cy="120" r="160" fill="#ffffff"/>
  </g>

  <g opacity="0.9">
    <rect x="205" y="180" width="85" height="280" fill="url(#glassA)"/>
    <rect x="320" y="220" width="68" height="240" fill="url(#glassB)"/>
    <rect x="415" y="150" width="112" height="310" fill="url(#glassA)"/>
    <rect x="560" y="245" width="70" height="215" fill="url(#glassB)"/>
    <rect x="650" y="195" width="95" height="265" fill="url(#glassA)"/>
    <rect x="790" y="230" width="78" height="230" fill="url(#glassB)"/>
    <rect x="905" y="170" width="88" height="290" fill="url(#glassA)"/>
    <rect x="1020" y="205" width="74" height="255" fill="url(#glassB)"/>
  </g>

  <path d="M0 470 C300 410, 620 470, 930 430 C1210 394, 1530 446, 1920 405 L1920 550 L0 550 Z" fill="url(#fieldA)"/>
  <rect x="0" y="540" width="1920" height="170" fill="url(#water)"/>
  <path d="M0 710 C320 640, 650 725, 960 685 C1290 640, 1590 726, 1920 675 L1920 980 L0 980 Z" fill="url(#fieldB)"/>

  <rect x="0" y="540" width="1920" height="9" fill="#ecf8ff" opacity="0.85"/>
  <path d="M0 770 C350 690, 640 770, 940 730 C1240 690, 1570 770, 1920 730 L1920 980 L0 980 Z" fill="#73ad2b"/>

  <g opacity="0.82">
    <rect x="1220" y="526" width="20" height="188" fill="#ecf4fb"/>
    <rect x="1540" y="520" width="20" height="195" fill="#ecf4fb"/>
    <rect x="1220" y="526" width="340" height="8" fill="#ecf4fb"/>
    <rect x="1244" y="574" width="290" height="6" fill="#ecf4fb"/>
  </g>

  <g opacity="0.88">
    <path d="M152 760 C300 706, 416 706, 560 760 C448 778, 265 778, 152 760 Z" fill="#5ca127"/>
    <path d="M560 760 C760 700, 1010 700, 1185 760 C1020 786, 735 786, 560 760 Z" fill="#6cb02e"/>
    <path d="M1185 760 C1380 710, 1630 710, 1820 760 C1640 786, 1360 786, 1185 760 Z" fill="#5ea629"/>
  </g>

  <g opacity="0.9">
    <path d="M1020 860 L1170 742 L1098 930 Z" fill="#ef0a80"/>
    <text x="1185" y="926" font-size="222" font-family="Arial, sans-serif" font-weight="700" fill="#2f3642">15</text>
    <text x="1540" y="930" font-size="58" font-family="Arial, sans-serif" font-weight="700" fill="#2f3642">min</text>
  </g>
</svg>
